<svg width="32" height="24" viewBox="0 0 32 24" fill="none" xmlns="http://www.w3.org/2000/svg">
<path d="M0.664062 17.3245C0.664062 21.1391 3.60446 24 7.33956 24C11.0747 24 14.0151 21.1391 14.0151 17.3245C14.0151 14.702 12.5846 12.4768 10.4389 11.4437L14.8892 0H8.61108L2.73029 11.4437C1.37929 14.0662 0.664062 15.7351 0.664062 17.3245ZM17.6707 17.3245C17.6707 21.1391 20.6111 24 24.3462 24C28.1608 24 31.0217 21.1391 31.0217 17.3245C31.0217 14.702 29.5912 12.4768 27.4455 11.4437L31.8959 0H25.6177L19.7369 11.4437C18.3859 14.0662 17.6707 15.7351 17.6707 17.3245Z" fill="#F7DE4E"/>
</svg>
